<?xml version="1.0" encoding="UTF-8"?>
<svg version="1.1" xmlns="http://www.w3.org/2000/svg" width="48" height="48" viewBox="0 0 48 48" fill="none" xmlns:xlink="http://www.w3.org/1999/xlink">
<path d="M0 0 C2.82559054 0.00315464 5.65012408 -0.02038315 8.47558594 -0.0456543 C29.66848769 -0.11972474 52.2898343 1.65508274 70.09277344 14.31567383 C71.04216797 14.99049805 71.04216797 14.99049805 72.01074219 15.67895508 C86.40689766 26.96071047 90.66510399 45.2195016 93.0090332 62.44433594 C96.68589173 92.89507877 98.11684839 133.34717783 78.95605469 159.19848633 C65.29734744 175.16940056 45.63486765 180.00582282 25.44042969 181.91333008 C18.14257258 182.4574941 10.84536476 182.51483978 3.53027344 182.50317383 C2.82756317 182.50256958 2.12485291 182.50196533 1.40084839 182.50134277 C-22.89640359 182.44478541 -51.36776799 181.49238146 -69.95019531 163.53051758 C-84.40085352 147.17617985 -88.00500259 124.66594522 -88.11035156 103.51489258 C-88.11605164 102.5984346 -88.12175171 101.68197662 -88.12762451 100.73774719 C-88.13701847 98.80401745 -88.14358601 96.87027211 -88.14746094 94.93652344 C-88.15707423 92.0489314 -88.18811335 89.16208105 -88.21972656 86.2746582 C-88.35917996 62.02494514 -86.08718129 36.51708346 -68.81738281 18.08520508 C-50.79336089 0.71304651 -23.58391744 -0.05479912 0 0 Z " fill="#1E61F9" transform="translate(92.9072265625,7.684326171875)"/>
<path d="M0 0 C5.53798311 4.63645097 7.27862882 8.32305001 8.6875 15.25 C8.92533203 14.37988281 8.92533203 14.37988281 9.16796875 13.4921875 C10.95622012 7.50500334 12.97008123 2.57840485 18.49609375 -0.8828125 C23.82769837 -2.99264534 30.088347 -2.56314284 35.484375 -0.875 C42.34028435 2.2828734 46.86447933 6.44543513 50.125 13.25 C51.25571691 19.28049016 49.79923774 24.06377044 46.6875 29.25 C45.37624131 30.60504841 44.04580065 31.94211051 42.6875 33.25 C43.61691406 33.20359375 44.54632813 33.1571875 45.50390625 33.109375 C58.2255334 32.73794063 58.2255334 32.73794063 63.6875 37.25 C69.16770188 44.17236027 69.30782496 50.65567962 68.6875 59.25 C67.23142031 65.60171772 63.23382724 69.60903356 57.875 73.0625 C52.71284509 74.98565575 47.99731621 74.71314936 42.6875 73.25 C43.1928125 73.76046875 43.698125 74.2709375 44.21875 74.796875 C48.08909921 79.12798007 50.23746583 82.40923169 50.5 88.3125 C50.10499986 94.40014919 48.18200401 98.17095434 43.6875 102.25 C35.8718348 108.03938163 29.49046191 109.3987846 19.6875 108.25 C14.55117739 105.80855718 11.6231482 101.51926454 9.6875 96.25 C9 92.375 9 92.375 8.6875 89.25 C8.44 90.425625 8.1925 91.60125 7.9375 92.8125 C6.50837911 98.41981461 4.40943242 102.52806758 0.25 106.6875 C-5.78425994 109.33410524 -12.3230448 109.29985663 -18.6875 107.625 C-25.12299721 104.80946997 -29.7656178 99.40821782 -32.8125 93.1875 C-33.82532319 87.23716376 -32.53118207 82.2926019 -29.3125 77.25 C-27.09536363 75.09211895 -24.75975594 73.14075665 -22.3125 71.25 C-23.4571875 71.745 -23.4571875 71.745 -24.625 72.25 C-30.70991182 73.90014558 -36.6222267 74.04711801 -42.6875 72.25 C-47.08029881 68.90310567 -49.5802862 64.4466414 -51.3125 59.25 C-51.95393523 51.56329262 -52.15000504 44.59041922 -47.3125 38.25 C-43.23077921 34.37236525 -39.5117581 31.95515096 -33.8125 32.0625 C-33.0596875 32.06894531 -32.306875 32.07539062 -31.53125 32.08203125 C-29.35259857 32.24696437 -27.41045189 32.65399094 -25.3125 33.25 C-26.09625 32.321875 -26.88 31.39375 -27.6875 30.4375 C-32.07137959 25.24606365 -32.75936174 21.95027084 -32.62109375 15.19140625 C-31.97728253 9.05482591 -27.88193661 5.29626527 -23.29296875 1.578125 C-15.91595618 -3.36898402 -7.8758049 -4.16080259 0 0 Z " fill="#FAFBFE" transform="translate(87.3125,42.75)"/>
<path d="M0 0 C2.82559054 0.00315464 5.65012408 -0.02038315 8.47558594 -0.0456543 C29.66848769 -0.11972474 52.2898343 1.65508274 70.09277344 14.31567383 C71.04216797 14.99049805 71.04216797 14.99049805 72.01074219 15.67895508 C86.40689766 26.96071047 90.66510399 45.2195016 93.0090332 62.44433594 C96.68589173 92.89507877 98.11684839 133.34717783 78.95605469 159.19848633 C65.29734744 175.16940056 45.63486765 180.00582282 25.44042969 181.91333008 C18.14257258 182.4574941 10.84536476 182.51483978 3.53027344 182.50317383 C2.82756317 182.50256958 2.12485291 182.50196533 1.40084839 182.50134277 C-22.89640359 182.44478541 -51.36776799 181.49238146 -69.95019531 163.53051758 C-84.40085352 147.17617985 -88.00500259 124.66594522 -88.11035156 103.51489258 C-88.11605164 102.5984346 -88.12175171 101.68197662 -88.12762451 100.73774719 C-88.13701847 98.80401745 -88.14358601 96.87027211 -88.14746094 94.93652344 C-88.15707423 92.0489314 -88.18811335 89.16208105 -88.21972656 86.2746582 C-88.35917996 62.02494514 -86.08718129 36.51708346 -68.81738281 18.08520508 C-50.79336089 0.71304651 -23.58391744 -0.05479912 0 0 Z M-64.59472656 20.62817383 C-80.31322003 38.89561219 -81.44363642 62.73589053 -81.29833984 85.78588867 C-81.28223971 88.81320218 -81.29830027 91.83918127 -81.31738281 94.86645508 C-81.33779054 113.12821896 -80.7372266 134.70434398 -69.90722656 150.31567383 C-69.24722656 150.31567383 -68.58722656 150.31567383 -67.90722656 150.31567383 C-67.53597656 151.24379883 -67.53597656 151.24379883 -67.15722656 152.19067383 C-65.67951894 154.70277679 -64.4676748 155.07674726 -61.90722656 156.31567383 C-61.57722656 157.30567383 -61.24722656 158.29567383 -60.90722656 159.31567383 C-60.24722656 159.31567383 -59.58722656 159.31567383 -58.90722656 159.31567383 C-58.90722656 159.97567383 -58.90722656 160.63567383 -58.90722656 161.31567383 C-42.4434569 172.73703433 -19.62204801 172.82772075 -0.43701172 172.70678711 C2.59030179 172.69068697 5.61628088 172.70674754 8.64355469 172.72583008 C30.14967051 172.74931648 53.33637858 171.41005229 70.09277344 156.31567383 C84.0834613 141.6081955 87.20856755 121.2337012 87.29589844 101.66723633 C87.30159851 100.65583588 87.30729858 99.64443542 87.31317139 98.60238647 C87.322581 96.46597322 87.32913922 94.32954571 87.33300781 92.19311523 C87.34264035 88.98499897 87.37367274 85.77754443 87.40527344 82.56958008 C87.51418638 61.35978564 86.24808811 38.39024871 71.71777344 21.56567383 C70.85152344 20.82317383 69.98527344 20.08067383 69.09277344 19.31567383 C68.54234375 18.83614258 67.99191406 18.35661133 67.42480469 17.86254883 C53.08870442 6.15719686 33.47591209 4.1949425 15.60058594 4.11254883 C14.61516815 4.10684875 13.62975037 4.10114868 12.61447144 4.09527588 C10.53530939 4.08587728 8.4561328 4.0793125 6.37695312 4.07543945 C3.26111386 4.0658078 0.14595638 4.03476504 -2.96972656 4.00317383 C-25.25671163 3.88472387 -47.00276183 5.49090185 -64.59472656 20.62817383 Z " fill="#000000" transform="translate(92.9072265625,7.684326171875)"/>
<path d="M0 0 C1.60294922 0.01353516 1.60294922 0.01353516 3.23828125 0.02734375 C4.04652344 0.03894531 4.85476562 0.05054688 5.6875 0.0625 C5.6875 0.3925 5.6875 0.7225 5.6875 1.0625 C4.62273437 1.22105469 3.55796875 1.37960937 2.4609375 1.54296875 C-7.30559446 3.08213619 -16.10494632 5.37217095 -25.3125 9.0625 C-26.24707031 9.40667969 -27.18164062 9.75085937 -28.14453125 10.10546875 C-30.92642838 11.33351343 -31.03305002 12.35307652 -32.3125 15.0625 C-34.17228129 17.21204892 -36.10775748 19.26515555 -38.3125 21.0625 C-38.9725 21.0625 -39.6325 21.0625 -40.3125 21.0625 C-37.03657372 13.02159005 -28.6426443 7.97617752 -21.015625 4.60546875 C-13.80946682 1.77680711 -7.77337449 -0.0854217 0 0 Z " fill="#457BF1" transform="translate(64.3125,13.9375)"/>
<path d="M0 0 C6.57692308 0.57692308 6.57692308 0.57692308 8 2 C7.71269945 4.33944736 7.38063221 6.6739143 7 9 C4.69 9.33 2.38 9.66 0 10 C-2.14915785 6.77626323 -2.38286803 5.73296326 -2 2 C-1.34 1.34 -0.68 0.68 0 0 Z " fill="#1C1C1C" transform="translate(93,91)"/>
<path d="M0 0 C4.24846075 0.47205119 6.26819288 2.88877522 9 6 C9 6.66 9 7.32 9 8 C4.75153925 7.52794881 2.73180712 5.11122478 0 2 C0 1.34 0 0.68 0 0 Z " fill="#3D78FC" transform="translate(101,103)"/>
<path d="M0 0 C-0.47205119 4.24846075 -2.88877522 6.26819288 -6 9 C-6.66 9 -7.32 9 -8 9 C-7.53918323 4.85264908 -4.48412936 0 0 0 Z " fill="#3E79FC" transform="translate(89,101)"/>
<path d="M0 0 C-0.47205119 4.24846075 -2.88877522 6.26819288 -6 9 C-6.66 9 -7.32 9 -8 9 C-7.53918323 4.85264908 -4.48412936 0 0 0 Z " fill="#3F7AFC" transform="translate(111,82)"/>
<path d="M0 0 C4.24846075 0.47205119 6.26819288 2.88877522 9 6 C9 6.66 9 7.32 9 8 C4.75153925 7.52794881 2.73180712 5.11122478 0 2 C0 1.34 0 0.68 0 0 Z " fill="#407BFC" transform="translate(82,81)"/>
<path d="M0 0 C1.32 0.33 2.64 0.66 4 1 C3.0479279 2.00596297 2.08812654 3.00461563 1.125 4 C0.59132813 4.556875 0.05765625 5.11375 -0.4921875 5.6875 C-2 7 -2 7 -4 7 C-2.79618552 4.50638429 -1.54571278 2.31856917 0 0 Z " fill="#3772F2" transform="translate(28,28)"/>
</svg>
